<?xml version="1.0" encoding="UTF-8"?>
<svg xmlns="http://www.w3.org/2000/svg" xmlns:xlink="http://www.w3.org/1999/xlink" width="720" height="1280" viewBox="0 0 720 1280">
<defs>
<g>
<g id="glyph-0-0">
<path d="M 1.3125 -0.265625 L 2.078125 -0.265625 C 2.390625 -0.265625 2.613281 -0.332031 2.75 -0.46875 C 2.894531 -0.601562 2.96875 -0.816406 2.96875 -1.109375 C 2.96875 -1.398438 2.894531 -1.613281 2.75 -1.75 C 2.613281 -1.882812 2.390625 -1.953125 2.078125 -1.953125 L 1.3125 -1.953125 Z M 1.3125 -2.21875 L 1.953125 -2.21875 C 2.234375 -2.21875 2.4375 -2.269531 2.5625 -2.375 C 2.695312 -2.488281 2.765625 -2.664062 2.765625 -2.90625 C 2.765625 -3.132812 2.695312 -3.300781 2.5625 -3.40625 C 2.4375 -3.519531 2.234375 -3.578125 1.953125 -3.578125 L 1.3125 -3.578125 Z M 0.296875 0 L 0.296875 -0.265625 L 0.78125 -0.265625 L 0.78125 -3.578125 L 0.296875 -3.578125 L 0.296875 -3.84375 L 2.1875 -3.84375 C 2.582031 -3.84375 2.875 -3.765625 3.0625 -3.609375 C 3.257812 -3.453125 3.359375 -3.21875 3.359375 -2.90625 C 3.359375 -2.675781 3.289062 -2.488281 3.15625 -2.34375 C 3.019531 -2.207031 2.820312 -2.128906 2.5625 -2.109375 C 2.882812 -2.066406 3.128906 -1.957031 3.296875 -1.78125 C 3.472656 -1.613281 3.5625 -1.390625 3.5625 -1.109375 C 3.5625 -0.734375 3.441406 -0.453125 3.203125 -0.265625 C 2.960938 -0.0859375 2.585938 0 2.078125 0 Z "/>
</g>
<g id="glyph-0-1">
<path d="M 1.78125 -5.140625 L 1.65625 -5.21875 C 1.625 -5.238281 1.585938 -5.253906 1.546875 -5.265625 C 1.515625 -5.285156 1.488281 -5.296875 1.46875 -5.296875 C 1.394531 -5.296875 1.335938 -5.269531 1.296875 -5.21875 C 1.253906 -5.164062 1.226562 -5.101562 1.21875 -5.03125 L 0.96875 -5.03125 C 0.96875 -5.195312 1.007812 -5.332031 1.09375 -5.4375 C 1.1875 -5.539062 1.304688 -5.59375 1.453125 -5.59375 C 1.515625 -5.59375 1.570312 -5.582031 1.625 -5.5625 C 1.675781 -5.550781 1.75 -5.519531 1.84375 -5.46875 L 1.984375 -5.390625 C 2.015625 -5.367188 2.050781 -5.351562 2.09375 -5.34375 C 2.132812 -5.332031 2.164062 -5.328125 2.1875 -5.328125 C 2.257812 -5.328125 2.316406 -5.347656 2.359375 -5.390625 C 2.398438 -5.441406 2.421875 -5.507812 2.421875 -5.59375 L 2.671875 -5.59375 C 2.671875 -5.40625 2.625 -5.265625 2.53125 -5.171875 C 2.445312 -5.078125 2.320312 -5.03125 2.15625 -5.03125 C 2.039062 -5.03125 1.921875 -5.066406 1.796875 -5.140625 Z M 1.578125 -4.90625 L 2.03125 -4.90625 L 2.625 -4.21875 L 2.328125 -4.21875 L 1.796875 -4.640625 L 1.28125 -4.21875 L 0.984375 -4.21875 Z M 1.0625 -1.390625 L 2.46875 -1.390625 L 1.765625 -3.21875 Z M -0.03125 0 L -0.03125 -0.265625 L 0.3125 -0.265625 L 1.671875 -3.84375 L 2.109375 -3.84375 L 3.484375 -0.265625 L 3.859375 -0.265625 L 3.859375 0 L 2.46875 0 L 2.46875 -0.265625 L 2.890625 -0.265625 L 2.578125 -1.125 L 0.953125 -1.125 L 0.625 -0.265625 L 1.046875 -0.265625 L 1.046875 0 Z "/>
</g>
<g id="glyph-0-2">
<path d="M 1 0 L 1 -0.265625 L 1.484375 -0.265625 L 1.484375 -1.65625 L 0.296875 -3.578125 L -0.0625 -3.578125 L -0.0625 -3.84375 L 1.375 -3.84375 L 1.375 -3.578125 L 0.921875 -3.578125 L 1.890625 -2.015625 L 2.84375 -3.578125 L 2.40625 -3.578125 L 2.40625 -3.84375 L 3.53125 -3.84375 L 3.53125 -3.578125 L 3.171875 -3.578125 L 2.015625 -1.703125 L 2.015625 -0.265625 L 2.5 -0.265625 L 2.5 0 Z "/>
</g>
<g id="glyph-0-3">
<path d="M 0.546875 -0.265625 C 0.546875 -0.359375 0.578125 -0.4375 0.640625 -0.5 C 0.710938 -0.570312 0.796875 -0.609375 0.890625 -0.609375 C 0.984375 -0.609375 1.0625 -0.570312 1.125 -0.5 C 1.195312 -0.4375 1.234375 -0.359375 1.234375 -0.265625 C 1.234375 -0.171875 1.203125 -0.0859375 1.140625 -0.015625 C 1.078125 0.046875 0.992188 0.078125 0.890625 0.078125 C 0.796875 0.078125 0.710938 0.046875 0.640625 -0.015625 C 0.578125 -0.0859375 0.546875 -0.171875 0.546875 -0.265625 Z M 0.546875 -1.953125 C 0.546875 -2.046875 0.578125 -2.125 0.640625 -2.1875 C 0.710938 -2.257812 0.796875 -2.296875 0.890625 -2.296875 C 0.992188 -2.296875 1.078125 -2.257812 1.140625 -2.1875 C 1.203125 -2.125 1.234375 -2.046875 1.234375 -1.953125 C 1.234375 -1.847656 1.203125 -1.765625 1.140625 -1.703125 C 1.078125 -1.640625 0.992188 -1.609375 0.890625 -1.609375 C 0.796875 -1.609375 0.710938 -1.640625 0.640625 -1.703125 C 0.578125 -1.773438 0.546875 -1.859375 0.546875 -1.953125 Z "/>
</g>
<g id="glyph-0-4">
</g>
<g id="glyph-0-5">
<path d="M 3.71875 -1.015625 C 3.601562 -0.660156 3.410156 -0.390625 3.140625 -0.203125 C 2.878906 -0.015625 2.546875 0.078125 2.140625 0.078125 C 1.890625 0.078125 1.65625 0.0351562 1.4375 -0.046875 C 1.21875 -0.140625 1.023438 -0.269531 0.859375 -0.4375 C 0.671875 -0.625 0.53125 -0.835938 0.4375 -1.078125 C 0.34375 -1.328125 0.296875 -1.609375 0.296875 -1.921875 C 0.296875 -2.515625 0.46875 -2.992188 0.8125 -3.359375 C 1.15625 -3.734375 1.613281 -3.921875 2.1875 -3.921875 C 2.394531 -3.921875 2.613281 -3.890625 2.84375 -3.828125 C 3.082031 -3.773438 3.34375 -3.695312 3.625 -3.59375 L 3.625 -2.703125 L 3.328125 -2.703125 C 3.265625 -3.023438 3.132812 -3.257812 2.9375 -3.40625 C 2.75 -3.5625 2.484375 -3.640625 2.140625 -3.640625 C 1.722656 -3.640625 1.410156 -3.492188 1.203125 -3.203125 C 0.992188 -2.910156 0.890625 -2.484375 0.890625 -1.921875 C 0.890625 -1.359375 0.992188 -0.929688 1.203125 -0.640625 C 1.410156 -0.347656 1.722656 -0.203125 2.140625 -0.203125 C 2.421875 -0.203125 2.65625 -0.269531 2.84375 -0.40625 C 3.03125 -0.539062 3.164062 -0.742188 3.25 -1.015625 Z "/>
</g>
<g id="glyph-0-6">
<path d="M 0.21875 0 L 0.21875 -0.265625 L 0.640625 -0.265625 L 0.640625 -3.734375 L 0.1875 -3.734375 L 0.1875 -4.015625 L 1.125 -4.015625 L 1.125 -2.25 C 1.207031 -2.4375 1.316406 -2.578125 1.453125 -2.671875 C 1.597656 -2.765625 1.765625 -2.8125 1.953125 -2.8125 C 2.253906 -2.8125 2.472656 -2.722656 2.609375 -2.546875 C 2.753906 -2.378906 2.828125 -2.113281 2.828125 -1.75 L 2.828125 -0.265625 L 3.25 -0.265625 L 3.25 0 L 1.9375 0 L 1.9375 -0.265625 L 2.359375 -0.265625 L 2.359375 -1.59375 C 2.359375 -1.925781 2.316406 -2.15625 2.234375 -2.28125 C 2.148438 -2.40625 2.003906 -2.46875 1.796875 -2.46875 C 1.578125 -2.46875 1.410156 -2.382812 1.296875 -2.21875 C 1.179688 -2.0625 1.125 -1.832031 1.125 -1.53125 L 1.125 -0.265625 L 1.53125 -0.265625 L 1.53125 0 Z "/>
</g>
<g id="glyph-0-7">
<path d="M 1.875 -2.734375 L 2.75 -2.734375 L 2.75 -0.265625 L 3.203125 -0.265625 L 3.203125 0 L 2.28125 0 L 2.28125 -0.484375 C 2.195312 -0.304688 2.082031 -0.164062 1.9375 -0.0625 C 1.800781 0.03125 1.640625 0.078125 1.453125 0.078125 C 1.148438 0.078125 0.925781 -0.00390625 0.78125 -0.171875 C 0.632812 -0.347656 0.5625 -0.625 0.5625 -1 L 0.5625 -2.46875 L 0.140625 -2.46875 L 0.140625 -2.734375 L 1.046875 -2.734375 L 1.046875 -1.140625 C 1.046875 -0.804688 1.085938 -0.578125 1.171875 -0.453125 C 1.253906 -0.328125 1.398438 -0.265625 1.609375 -0.265625 C 1.828125 -0.265625 1.992188 -0.347656 2.109375 -0.515625 C 2.222656 -0.679688 2.28125 -0.914062 2.28125 -1.21875 L 2.28125 -2.46875 L 1.875 -2.46875 Z "/>
</g>
<g id="glyph-0-8">
<path d="M 1.59375 -0.1875 C 1.84375 -0.1875 2.03125 -0.285156 2.15625 -0.484375 C 2.289062 -0.679688 2.359375 -0.976562 2.359375 -1.375 C 2.359375 -1.757812 2.289062 -2.050781 2.15625 -2.25 C 2.03125 -2.457031 1.84375 -2.5625 1.59375 -2.5625 C 1.332031 -2.5625 1.132812 -2.457031 1 -2.25 C 0.875 -2.050781 0.8125 -1.757812 0.8125 -1.375 C 0.8125 -0.976562 0.875 -0.679688 1 -0.484375 C 1.132812 -0.285156 1.332031 -0.1875 1.59375 -0.1875 Z M 1.59375 0.078125 C 1.1875 0.078125 0.863281 -0.0507812 0.625 -0.3125 C 0.382812 -0.582031 0.265625 -0.9375 0.265625 -1.375 C 0.265625 -1.8125 0.382812 -2.160156 0.625 -2.421875 C 0.863281 -2.679688 1.1875 -2.8125 1.59375 -2.8125 C 1.988281 -2.8125 2.304688 -2.679688 2.546875 -2.421875 C 2.785156 -2.160156 2.90625 -1.8125 2.90625 -1.375 C 2.90625 -0.9375 2.785156 -0.582031 2.546875 -0.3125 C 2.304688 -0.0507812 1.988281 0.078125 1.59375 0.078125 Z M 1.59375 -4.171875 L 1.46875 -4.25 C 1.4375 -4.269531 1.398438 -4.285156 1.359375 -4.296875 C 1.328125 -4.316406 1.300781 -4.328125 1.28125 -4.328125 C 1.207031 -4.328125 1.148438 -4.300781 1.109375 -4.25 C 1.066406 -4.195312 1.039062 -4.132812 1.03125 -4.0625 L 0.78125 -4.0625 C 0.78125 -4.226562 0.820312 -4.363281 0.90625 -4.46875 C 1 -4.570312 1.117188 -4.625 1.265625 -4.625 C 1.328125 -4.625 1.382812 -4.613281 1.4375 -4.59375 C 1.488281 -4.582031 1.5625 -4.550781 1.65625 -4.5 L 1.796875 -4.421875 C 1.828125 -4.398438 1.863281 -4.382812 1.90625 -4.375 C 1.945312 -4.363281 1.976562 -4.359375 2 -4.359375 C 2.070312 -4.359375 2.128906 -4.378906 2.171875 -4.421875 C 2.210938 -4.472656 2.234375 -4.539062 2.234375 -4.625 L 2.484375 -4.625 C 2.484375 -4.4375 2.4375 -4.296875 2.34375 -4.203125 C 2.257812 -4.109375 2.132812 -4.0625 1.96875 -4.0625 C 1.851562 -4.0625 1.734375 -4.097656 1.609375 -4.171875 Z M 1.390625 -3.9375 L 1.84375 -3.9375 L 2.4375 -3.25 L 2.140625 -3.25 L 1.609375 -3.671875 L 1.09375 -3.25 L 0.796875 -3.25 Z "/>
</g>
<g id="glyph-0-9">
<path d="M 0.515625 -3.59375 C 0.515625 -3.664062 0.539062 -3.734375 0.59375 -3.796875 C 0.65625 -3.859375 0.726562 -3.890625 0.8125 -3.890625 C 0.882812 -3.890625 0.945312 -3.859375 1 -3.796875 C 1.0625 -3.734375 1.09375 -3.664062 1.09375 -3.59375 C 1.09375 -3.507812 1.0625 -3.4375 1 -3.375 C 0.945312 -3.320312 0.882812 -3.296875 0.8125 -3.296875 C 0.726562 -3.296875 0.65625 -3.320312 0.59375 -3.375 C 0.539062 -3.4375 0.515625 -3.507812 0.515625 -3.59375 Z M 1.125 -0.265625 L 1.5625 -0.265625 L 1.5625 0 L 0.1875 0 L 0.1875 -0.265625 L 0.640625 -0.265625 L 0.640625 -2.46875 L 0.1875 -2.46875 L 0.1875 -2.734375 L 1.125 -2.734375 Z "/>
</g>
<g id="glyph-0-10">
<path d="M 2.65625 -3.84375 L 2.65625 -3.421875 L 0.890625 -3.421875 L 0.890625 -2.328125 C 0.984375 -2.390625 1.085938 -2.4375 1.203125 -2.46875 C 1.328125 -2.5 1.460938 -2.515625 1.609375 -2.515625 C 2.023438 -2.515625 2.351562 -2.394531 2.59375 -2.15625 C 2.832031 -1.925781 2.953125 -1.613281 2.953125 -1.21875 C 2.953125 -0.8125 2.828125 -0.492188 2.578125 -0.265625 C 2.335938 -0.0351562 2 0.078125 1.5625 0.078125 C 1.382812 0.078125 1.203125 0.0546875 1.015625 0.015625 C 0.828125 -0.0234375 0.640625 -0.09375 0.453125 -0.1875 L 0.453125 -0.9375 L 0.734375 -0.9375 C 0.753906 -0.6875 0.832031 -0.5 0.96875 -0.375 C 1.113281 -0.25 1.3125 -0.1875 1.5625 -0.1875 C 1.832031 -0.1875 2.039062 -0.273438 2.1875 -0.453125 C 2.332031 -0.628906 2.40625 -0.882812 2.40625 -1.21875 C 2.40625 -1.550781 2.332031 -1.804688 2.1875 -1.984375 C 2.039062 -2.160156 1.832031 -2.25 1.5625 -2.25 C 1.40625 -2.25 1.269531 -2.222656 1.15625 -2.171875 C 1.039062 -2.117188 0.9375 -2.035156 0.84375 -1.921875 L 0.625 -1.921875 L 0.625 -3.84375 Z "/>
</g>
<g id="glyph-0-11">
<path d="M 2.71875 -0.828125 C 2.644531 -0.535156 2.515625 -0.3125 2.328125 -0.15625 C 2.140625 0 1.894531 0.078125 1.59375 0.078125 C 1.1875 0.078125 0.863281 -0.0507812 0.625 -0.3125 C 0.382812 -0.582031 0.265625 -0.9375 0.265625 -1.375 C 0.265625 -1.8125 0.382812 -2.160156 0.625 -2.421875 C 0.863281 -2.679688 1.1875 -2.8125 1.59375 -2.8125 C 1.757812 -2.8125 1.925781 -2.789062 2.09375 -2.75 C 2.269531 -2.707031 2.445312 -2.648438 2.625 -2.578125 L 2.625 -1.875 L 2.34375 -1.875 C 2.3125 -2.113281 2.234375 -2.285156 2.109375 -2.390625 C 1.992188 -2.503906 1.820312 -2.5625 1.59375 -2.5625 C 1.332031 -2.5625 1.132812 -2.460938 1 -2.265625 C 0.875 -2.066406 0.8125 -1.769531 0.8125 -1.375 C 0.8125 -0.976562 0.875 -0.679688 1 -0.484375 C 1.132812 -0.285156 1.332031 -0.1875 1.59375 -0.1875 C 1.800781 -0.1875 1.960938 -0.238281 2.078125 -0.34375 C 2.203125 -0.445312 2.285156 -0.609375 2.328125 -0.828125 Z "/>
</g>
<g id="glyph-0-12">
<path d="M 1.5 -3.53125 L 1.34375 -3.671875 C 1.300781 -3.710938 1.265625 -3.738281 1.234375 -3.75 C 1.210938 -3.769531 1.1875 -3.78125 1.15625 -3.78125 C 1.082031 -3.78125 1.023438 -3.742188 0.984375 -3.671875 C 0.941406 -3.609375 0.914062 -3.507812 0.90625 -3.375 L 0.65625 -3.375 C 0.65625 -3.601562 0.695312 -3.78125 0.78125 -3.90625 C 0.875 -4.039062 1 -4.109375 1.15625 -4.109375 C 1.21875 -4.109375 1.273438 -4.09375 1.328125 -4.0625 C 1.390625 -4.039062 1.453125 -4.003906 1.515625 -3.953125 L 1.671875 -3.796875 C 1.703125 -3.765625 1.734375 -3.738281 1.765625 -3.71875 C 1.796875 -3.707031 1.828125 -3.703125 1.859375 -3.703125 C 1.941406 -3.703125 2 -3.734375 2.03125 -3.796875 C 2.070312 -3.867188 2.097656 -3.972656 2.109375 -4.109375 L 2.359375 -4.109375 C 2.359375 -3.867188 2.3125 -3.6875 2.21875 -3.5625 C 2.132812 -3.4375 2.015625 -3.375 1.859375 -3.375 C 1.796875 -3.375 1.734375 -3.382812 1.671875 -3.40625 C 1.617188 -3.4375 1.5625 -3.476562 1.5 -3.53125 Z M 1.84375 -2.734375 L 2.71875 -2.734375 L 2.71875 -0.265625 L 3.171875 -0.265625 L 3.171875 0 L 2.25 0 L 2.25 -0.484375 C 2.164062 -0.304688 2.050781 -0.164062 1.90625 -0.0625 C 1.769531 0.03125 1.609375 0.078125 1.421875 0.078125 C 1.117188 0.078125 0.894531 -0.00390625 0.75 -0.171875 C 0.601562 -0.347656 0.53125 -0.625 0.53125 -1 L 0.53125 -2.46875 L 0.109375 -2.46875 L 0.109375 -2.734375 L 1.015625 -2.734375 L 1.015625 -1.140625 C 1.015625 -0.804688 1.054688 -0.578125 1.140625 -0.453125 C 1.222656 -0.328125 1.367188 -0.265625 1.578125 -0.265625 C 1.796875 -0.265625 1.960938 -0.347656 2.078125 -0.515625 C 2.191406 -0.679688 2.25 -0.914062 2.25 -1.21875 L 2.25 -2.46875 L 1.84375 -2.46875 Z M 2.625 -2.171875 L 2.625 -2.421875 C 2.832031 -2.265625 2.976562 -2.1875 3.0625 -2.1875 C 3.144531 -2.1875 3.207031 -2.21875 3.25 -2.28125 C 3.300781 -2.34375 3.328125 -2.421875 3.328125 -2.515625 C 3.328125 -2.554688 3.320312 -2.601562 3.3125 -2.65625 C 3.300781 -2.707031 3.285156 -2.757812 3.265625 -2.8125 L 3.59375 -2.8125 C 3.601562 -2.75 3.613281 -2.6875 3.625 -2.625 C 3.632812 -2.570312 3.640625 -2.515625 3.640625 -2.453125 C 3.640625 -2.265625 3.597656 -2.113281 3.515625 -2 C 3.441406 -1.894531 3.335938 -1.84375 3.203125 -1.84375 C 3.117188 -1.84375 3.03125 -1.867188 2.9375 -1.921875 C 2.84375 -1.972656 2.738281 -2.054688 2.625 -2.171875 Z "/>
</g>
<g id="glyph-0-13">
<path d="M 1.296875 -3.953125 L 1.75 -3.953125 L 2.34375 -3.265625 L 2.046875 -3.265625 L 1.515625 -3.6875 L 1 -3.265625 L 0.703125 -3.265625 Z M 2.109375 -4.484375 L 2.578125 -3.796875 L 2.28125 -3.796875 L 1.609375 -4.484375 Z M 2.109375 -0.859375 L 2.109375 -1.4375 L 1.484375 -1.4375 C 1.253906 -1.4375 1.082031 -1.382812 0.96875 -1.28125 C 0.851562 -1.1875 0.796875 -1.035156 0.796875 -0.828125 C 0.796875 -0.628906 0.851562 -0.472656 0.96875 -0.359375 C 1.082031 -0.253906 1.238281 -0.203125 1.4375 -0.203125 C 1.632812 -0.203125 1.796875 -0.257812 1.921875 -0.375 C 2.046875 -0.5 2.109375 -0.660156 2.109375 -0.859375 Z M 2.578125 -1.71875 L 2.578125 -0.265625 L 3 -0.265625 L 3 0 L 2.109375 0 L 2.109375 -0.296875 C 1.992188 -0.171875 1.867188 -0.078125 1.734375 -0.015625 C 1.597656 0.046875 1.4375 0.078125 1.25 0.078125 C 0.945312 0.078125 0.707031 0 0.53125 -0.15625 C 0.351562 -0.320312 0.265625 -0.546875 0.265625 -0.828125 C 0.265625 -1.109375 0.363281 -1.328125 0.5625 -1.484375 C 0.769531 -1.640625 1.0625 -1.71875 1.4375 -1.71875 L 2.109375 -1.71875 L 2.109375 -1.90625 C 2.109375 -2.113281 2.039062 -2.273438 1.90625 -2.390625 C 1.78125 -2.503906 1.601562 -2.5625 1.375 -2.5625 C 1.1875 -2.5625 1.035156 -2.515625 0.921875 -2.421875 C 0.816406 -2.335938 0.75 -2.210938 0.71875 -2.046875 L 0.46875 -2.046875 L 0.46875 -2.609375 C 0.632812 -2.671875 0.796875 -2.71875 0.953125 -2.75 C 1.109375 -2.789062 1.257812 -2.8125 1.40625 -2.8125 C 1.789062 -2.8125 2.082031 -2.71875 2.28125 -2.53125 C 2.476562 -2.34375 2.578125 -2.070312 2.578125 -1.71875 Z "/>
</g>
<g id="glyph-0-14">
<path d="M 0.21875 0 L 0.21875 -0.265625 L 0.640625 -0.265625 L 0.640625 -2.46875 L 0.1875 -2.46875 L 0.1875 -2.734375 L 1.125 -2.734375 L 1.125 -2.25 C 1.207031 -2.4375 1.316406 -2.578125 1.453125 -2.671875 C 1.597656 -2.765625 1.765625 -2.8125 1.953125 -2.8125 C 2.253906 -2.8125 2.472656 -2.722656 2.609375 -2.546875 C 2.753906 -2.378906 2.828125 -2.113281 2.828125 -1.75 L 2.828125 -0.265625 L 3.25 -0.265625 L 3.25 0 L 1.9375 0 L 1.9375 -0.265625 L 2.359375 -0.265625 L 2.359375 -1.59375 C 2.359375 -1.925781 2.316406 -2.15625 2.234375 -2.28125 C 2.148438 -2.40625 2.003906 -2.46875 1.796875 -2.46875 C 1.578125 -2.46875 1.410156 -2.382812 1.296875 -2.21875 C 1.179688 -2.0625 1.125 -1.832031 1.125 -1.53125 L 1.125 -0.265625 L 1.53125 -0.265625 L 1.53125 0 Z "/>
</g>
<g id="glyph-0-15">
<path d="M 2.734375 -2.203125 C 2.828125 -2.410156 2.941406 -2.5625 3.078125 -2.65625 C 3.222656 -2.757812 3.390625 -2.8125 3.578125 -2.8125 C 3.867188 -2.8125 4.082031 -2.722656 4.21875 -2.546875 C 4.363281 -2.367188 4.4375 -2.101562 4.4375 -1.75 L 4.4375 -0.265625 L 4.859375 -0.265625 L 4.859375 0 L 3.546875 0 L 3.546875 -0.265625 L 3.96875 -0.265625 L 3.96875 -1.6875 C 3.96875 -1.96875 3.925781 -2.164062 3.84375 -2.28125 C 3.757812 -2.40625 3.617188 -2.46875 3.421875 -2.46875 C 3.210938 -2.46875 3.050781 -2.382812 2.9375 -2.21875 C 2.832031 -2.0625 2.78125 -1.832031 2.78125 -1.53125 L 2.78125 -0.265625 L 3.1875 -0.265625 L 3.1875 0 L 1.890625 0 L 1.890625 -0.265625 L 2.296875 -0.265625 L 2.296875 -1.703125 C 2.296875 -1.972656 2.253906 -2.164062 2.171875 -2.28125 C 2.097656 -2.40625 1.960938 -2.46875 1.765625 -2.46875 C 1.554688 -2.46875 1.394531 -2.382812 1.28125 -2.21875 C 1.175781 -2.0625 1.125 -1.832031 1.125 -1.53125 L 1.125 -0.265625 L 1.53125 -0.265625 L 1.53125 0 L 0.21875 0 L 0.21875 -0.265625 L 0.640625 -0.265625 L 0.640625 -2.46875 L 0.1875 -2.46875 L 0.1875 -2.734375 L 1.125 -2.734375 L 1.125 -2.25 C 1.207031 -2.4375 1.316406 -2.578125 1.453125 -2.671875 C 1.585938 -2.765625 1.742188 -2.8125 1.921875 -2.8125 C 2.128906 -2.8125 2.300781 -2.757812 2.4375 -2.65625 C 2.582031 -2.550781 2.679688 -2.398438 2.734375 -2.203125 Z "/>
</g>
<g id="glyph-0-16">
<path d="M 2.109375 -0.859375 L 2.109375 -1.4375 L 1.484375 -1.4375 C 1.253906 -1.4375 1.082031 -1.382812 0.96875 -1.28125 C 0.851562 -1.1875 0.796875 -1.035156 0.796875 -0.828125 C 0.796875 -0.628906 0.851562 -0.472656 0.96875 -0.359375 C 1.082031 -0.253906 1.238281 -0.203125 1.4375 -0.203125 C 1.632812 -0.203125 1.796875 -0.257812 1.921875 -0.375 C 2.046875 -0.5 2.109375 -0.660156 2.109375 -0.859375 Z M 2.578125 -1.71875 L 2.578125 -0.265625 L 3 -0.265625 L 3 0 L 2.109375 0 L 2.109375 -0.296875 C 1.992188 -0.171875 1.867188 -0.078125 1.734375 -0.015625 C 1.597656 0.046875 1.4375 0.078125 1.25 0.078125 C 0.945312 0.078125 0.707031 0 0.53125 -0.15625 C 0.351562 -0.320312 0.265625 -0.546875 0.265625 -0.828125 C 0.265625 -1.109375 0.363281 -1.328125 0.5625 -1.484375 C 0.769531 -1.640625 1.0625 -1.71875 1.4375 -1.71875 L 2.109375 -1.71875 L 2.109375 -1.90625 C 2.109375 -2.113281 2.039062 -2.273438 1.90625 -2.390625 C 1.78125 -2.503906 1.601562 -2.5625 1.375 -2.5625 C 1.1875 -2.5625 1.035156 -2.515625 0.921875 -2.421875 C 0.816406 -2.335938 0.75 -2.210938 0.71875 -2.046875 L 0.46875 -2.046875 L 0.46875 -2.609375 C 0.632812 -2.671875 0.796875 -2.71875 0.953125 -2.75 C 1.109375 -2.789062 1.257812 -2.8125 1.40625 -2.8125 C 1.789062 -2.8125 2.082031 -2.71875 2.28125 -2.53125 C 2.476562 -2.34375 2.578125 -2.070312 2.578125 -1.71875 Z M 1.421875 -4.5 C 1.742188 -4.5 1.941406 -4.40625 2.015625 -4.21875 C 2.023438 -4.164062 2.03125 -4.113281 2.03125 -4.0625 C 2.03125 -3.976562 2.003906 -3.882812 1.953125 -3.78125 C 1.867188 -3.632812 1.769531 -3.523438 1.65625 -3.453125 L 1.65625 -3.25 L 1.265625 -3.25 L 1.265625 -3.546875 C 1.453125 -3.640625 1.570312 -3.710938 1.625 -3.765625 C 1.664062 -3.804688 1.6875 -3.863281 1.6875 -3.9375 C 1.6875 -4.039062 1.640625 -4.113281 1.546875 -4.15625 C 1.492188 -4.175781 1.4375 -4.1875 1.375 -4.1875 C 1.25 -4.1875 1.113281 -4.15625 0.96875 -4.09375 L 0.96875 -4.4375 C 1.039062 -4.46875 1.160156 -4.488281 1.328125 -4.5 C 1.367188 -4.5 1.398438 -4.5 1.421875 -4.5 Z "/>
</g>
<g id="glyph-0-17">
<path d="M 2.765625 -2.46875 L 2.765625 -0.0625 C 2.765625 0.332031 2.65625 0.632812 2.4375 0.84375 C 2.226562 1.0625 1.921875 1.171875 1.515625 1.171875 C 1.335938 1.171875 1.164062 1.15625 1 1.125 C 0.832031 1.09375 0.675781 1.046875 0.53125 0.984375 L 0.53125 0.40625 L 0.78125 0.40625 C 0.8125 0.582031 0.882812 0.710938 1 0.796875 C 1.113281 0.878906 1.273438 0.921875 1.484375 0.921875 C 1.765625 0.921875 1.96875 0.84375 2.09375 0.6875 C 2.226562 0.53125 2.296875 0.28125 2.296875 -0.0625 L 2.296875 -0.421875 C 2.203125 -0.253906 2.082031 -0.128906 1.9375 -0.046875 C 1.800781 0.0351562 1.625 0.078125 1.40625 0.078125 C 1.070312 0.078125 0.796875 -0.0546875 0.578125 -0.328125 C 0.367188 -0.597656 0.265625 -0.945312 0.265625 -1.375 C 0.265625 -1.800781 0.367188 -2.144531 0.578125 -2.40625 C 0.796875 -2.675781 1.070312 -2.8125 1.40625 -2.8125 C 1.625 -2.8125 1.800781 -2.769531 1.9375 -2.6875 C 2.082031 -2.613281 2.203125 -2.488281 2.296875 -2.3125 L 2.296875 -2.734375 L 3.21875 -2.734375 L 3.21875 -2.46875 Z M 2.296875 -1.5 C 2.296875 -1.832031 2.234375 -2.082031 2.109375 -2.25 C 1.984375 -2.425781 1.800781 -2.515625 1.5625 -2.515625 C 1.3125 -2.515625 1.125 -2.414062 1 -2.21875 C 0.875 -2.03125 0.8125 -1.75 0.8125 -1.375 C 0.8125 -0.988281 0.875 -0.695312 1 -0.5 C 1.125 -0.3125 1.3125 -0.21875 1.5625 -0.21875 C 1.800781 -0.21875 1.984375 -0.300781 2.109375 -0.46875 C 2.234375 -0.644531 2.296875 -0.898438 2.296875 -1.234375 Z "/>
</g>
<g id="glyph-0-18">
<path d="M 0.5625 -2.46875 L 0.15625 -2.46875 L 0.15625 -2.734375 L 0.5625 -2.734375 L 0.5625 -3.59375 L 1.046875 -3.59375 L 1.046875 -2.734375 L 1.9375 -2.734375 L 1.9375 -2.46875 L 1.046875 -2.46875 L 1.046875 -0.71875 C 1.046875 -0.488281 1.066406 -0.34375 1.109375 -0.28125 C 1.160156 -0.21875 1.242188 -0.1875 1.359375 -0.1875 C 1.484375 -0.1875 1.570312 -0.222656 1.625 -0.296875 C 1.6875 -0.367188 1.71875 -0.484375 1.71875 -0.640625 L 2.078125 -0.640625 C 2.066406 -0.390625 2 -0.207031 1.875 -0.09375 C 1.75 0.0195312 1.566406 0.078125 1.328125 0.078125 C 1.046875 0.078125 0.847656 0.0195312 0.734375 -0.09375 C 0.617188 -0.21875 0.5625 -0.425781 0.5625 -0.71875 Z "/>
</g>
<g id="glyph-0-19">
<path d="M 1.59375 -0.1875 C 1.84375 -0.1875 2.03125 -0.285156 2.15625 -0.484375 C 2.289062 -0.679688 2.359375 -0.976562 2.359375 -1.375 C 2.359375 -1.757812 2.289062 -2.050781 2.15625 -2.25 C 2.03125 -2.457031 1.84375 -2.5625 1.59375 -2.5625 C 1.332031 -2.5625 1.132812 -2.457031 1 -2.25 C 0.875 -2.050781 0.8125 -1.757812 0.8125 -1.375 C 0.8125 -0.976562 0.875 -0.679688 1 -0.484375 C 1.132812 -0.285156 1.332031 -0.1875 1.59375 -0.1875 Z M 1.59375 0.078125 C 1.1875 0.078125 0.863281 -0.0507812 0.625 -0.3125 C 0.382812 -0.582031 0.265625 -0.9375 0.265625 -1.375 C 0.265625 -1.8125 0.382812 -2.160156 0.625 -2.421875 C 0.863281 -2.679688 1.1875 -2.8125 1.59375 -2.8125 C 1.988281 -2.8125 2.304688 -2.679688 2.546875 -2.421875 C 2.785156 -2.160156 2.90625 -1.8125 2.90625 -1.375 C 2.90625 -0.9375 2.785156 -0.582031 2.546875 -0.3125 C 2.304688 -0.0507812 1.988281 0.078125 1.59375 0.078125 Z M 2.71875 -4.46875 L 3.21875 -4.46875 L 2.546875 -3.78125 L 2.25 -3.78125 Z M 1.390625 -3.9375 L 1.84375 -3.9375 L 2.4375 -3.25 L 2.140625 -3.25 L 1.609375 -3.671875 L 1.09375 -3.25 L 0.796875 -3.25 Z "/>
</g>
<g id="glyph-0-20">
<path d="M 1.453125 -3.953125 L 1.90625 -3.953125 L 2.5 -3.265625 L 2.203125 -3.265625 L 1.671875 -3.6875 L 1.15625 -3.265625 L 0.859375 -3.265625 Z M 2.515625 -4.78125 C 2.835938 -4.78125 3.035156 -4.6875 3.109375 -4.5 C 3.117188 -4.445312 3.125 -4.394531 3.125 -4.34375 C 3.125 -4.257812 3.097656 -4.164062 3.046875 -4.0625 C 2.960938 -3.914062 2.863281 -3.804688 2.75 -3.734375 L 2.75 -3.53125 L 2.359375 -3.53125 L 2.359375 -3.828125 C 2.546875 -3.921875 2.664062 -3.992188 2.71875 -4.046875 C 2.757812 -4.085938 2.78125 -4.144531 2.78125 -4.21875 C 2.78125 -4.320312 2.734375 -4.394531 2.640625 -4.4375 C 2.585938 -4.457031 2.53125 -4.46875 2.46875 -4.46875 C 2.34375 -4.46875 2.207031 -4.4375 2.0625 -4.375 L 2.0625 -4.71875 C 2.132812 -4.75 2.253906 -4.769531 2.421875 -4.78125 C 2.460938 -4.78125 2.492188 -4.78125 2.515625 -4.78125 Z M 2.859375 -1.328125 L 0.8125 -1.328125 L 0.8125 -1.296875 C 0.8125 -0.929688 0.878906 -0.65625 1.015625 -0.46875 C 1.160156 -0.28125 1.367188 -0.1875 1.640625 -0.1875 C 1.847656 -0.1875 2.019531 -0.238281 2.15625 -0.34375 C 2.289062 -0.457031 2.382812 -0.617188 2.4375 -0.828125 L 2.8125 -0.828125 C 2.738281 -0.523438 2.597656 -0.296875 2.390625 -0.140625 C 2.191406 0.00390625 1.925781 0.078125 1.59375 0.078125 C 1.195312 0.078125 0.875 -0.0507812 0.625 -0.3125 C 0.382812 -0.582031 0.265625 -0.9375 0.265625 -1.375 C 0.265625 -1.800781 0.382812 -2.144531 0.625 -2.40625 C 0.863281 -2.675781 1.175781 -2.8125 1.5625 -2.8125 C 1.976562 -2.8125 2.296875 -2.679688 2.515625 -2.421875 C 2.734375 -2.171875 2.847656 -1.804688 2.859375 -1.328125 Z M 2.296875 -1.59375 C 2.285156 -1.914062 2.21875 -2.15625 2.09375 -2.3125 C 1.96875 -2.476562 1.789062 -2.5625 1.5625 -2.5625 C 1.34375 -2.5625 1.171875 -2.476562 1.046875 -2.3125 C 0.921875 -2.15625 0.84375 -1.914062 0.8125 -1.59375 Z "/>
</g>
<g id="glyph-0-21">
<path d="M 1.734375 -0.1875 C 1.972656 -0.1875 2.15625 -0.273438 2.28125 -0.453125 C 2.414062 -0.628906 2.484375 -0.882812 2.484375 -1.21875 C 2.484375 -1.550781 2.414062 -1.804688 2.28125 -1.984375 C 2.15625 -2.160156 1.972656 -2.25 1.734375 -2.25 C 1.484375 -2.25 1.289062 -2.160156 1.15625 -1.984375 C 1.03125 -1.816406 0.96875 -1.570312 0.96875 -1.25 C 0.96875 -0.90625 1.03125 -0.640625 1.15625 -0.453125 C 1.289062 -0.273438 1.484375 -0.1875 1.734375 -0.1875 Z M 0.890625 -2.125 C 1.003906 -2.25 1.132812 -2.34375 1.28125 -2.40625 C 1.425781 -2.46875 1.59375 -2.5 1.78125 -2.5 C 2.164062 -2.5 2.46875 -2.382812 2.6875 -2.15625 C 2.914062 -1.925781 3.03125 -1.613281 3.03125 -1.21875 C 3.03125 -0.820312 2.910156 -0.503906 2.671875 -0.265625 C 2.429688 -0.0351562 2.109375 0.078125 1.703125 0.078125 C 1.273438 0.078125 0.941406 -0.0820312 0.703125 -0.40625 C 0.472656 -0.726562 0.359375 -1.191406 0.359375 -1.796875 C 0.359375 -2.472656 0.492188 -2.992188 0.765625 -3.359375 C 1.046875 -3.734375 1.4375 -3.921875 1.9375 -3.921875 C 2.070312 -3.921875 2.210938 -3.90625 2.359375 -3.875 C 2.515625 -3.851562 2.671875 -3.816406 2.828125 -3.765625 L 2.828125 -3.125 L 2.53125 -3.125 C 2.507812 -3.300781 2.441406 -3.4375 2.328125 -3.53125 C 2.222656 -3.625 2.078125 -3.671875 1.890625 -3.671875 C 1.554688 -3.671875 1.304688 -3.539062 1.140625 -3.28125 C 0.972656 -3.03125 0.890625 -2.644531 0.890625 -2.125 Z "/>
</g>
<g id="glyph-0-22">
<path d="M 1.59375 -0.1875 C 1.84375 -0.1875 2.03125 -0.285156 2.15625 -0.484375 C 2.289062 -0.679688 2.359375 -0.976562 2.359375 -1.375 C 2.359375 -1.757812 2.289062 -2.050781 2.15625 -2.25 C 2.03125 -2.457031 1.84375 -2.5625 1.59375 -2.5625 C 1.332031 -2.5625 1.132812 -2.457031 1 -2.25 C 0.875 -2.050781 0.8125 -1.757812 0.8125 -1.375 C 0.8125 -0.976562 0.875 -0.679688 1 -0.484375 C 1.132812 -0.285156 1.332031 -0.1875 1.59375 -0.1875 Z M 1.59375 0.078125 C 1.1875 0.078125 0.863281 -0.0507812 0.625 -0.3125 C 0.382812 -0.582031 0.265625 -0.9375 0.265625 -1.375 C 0.265625 -1.8125 0.382812 -2.160156 0.625 -2.421875 C 0.863281 -2.679688 1.1875 -2.8125 1.59375 -2.8125 C 1.988281 -2.8125 2.304688 -2.679688 2.546875 -2.421875 C 2.785156 -2.160156 2.90625 -1.8125 2.90625 -1.375 C 2.90625 -0.9375 2.785156 -0.582031 2.546875 -0.3125 C 2.304688 -0.0507812 1.988281 0.078125 1.59375 0.078125 Z M 1.375 -4.21875 L 1.796875 -4.21875 L 2.40625 -3.25 L 2.109375 -3.25 L 1.59375 -3.921875 L 1.0625 -3.25 L 0.765625 -3.25 Z "/>
</g>
<g id="glyph-0-23">
<path d="M 1.6875 0.828125 C 1.269531 0.640625 0.953125 0.34375 0.734375 -0.0625 C 0.523438 -0.46875 0.421875 -0.976562 0.421875 -1.59375 C 0.421875 -2.207031 0.523438 -2.71875 0.734375 -3.125 C 0.953125 -3.53125 1.269531 -3.828125 1.6875 -4.015625 L 1.6875 -3.765625 C 1.414062 -3.578125 1.222656 -3.316406 1.109375 -2.984375 C 0.992188 -2.660156 0.9375 -2.195312 0.9375 -1.59375 C 0.9375 -1 0.992188 -0.535156 1.109375 -0.203125 C 1.222656 0.128906 1.414062 0.382812 1.6875 0.5625 Z "/>
</g>
<g id="glyph-0-24">
<path d="M 1.59375 -0.1875 C 1.84375 -0.1875 2.03125 -0.285156 2.15625 -0.484375 C 2.289062 -0.679688 2.359375 -0.976562 2.359375 -1.375 C 2.359375 -1.757812 2.289062 -2.050781 2.15625 -2.25 C 2.03125 -2.457031 1.84375 -2.5625 1.59375 -2.5625 C 1.332031 -2.5625 1.132812 -2.457031 1 -2.25 C 0.875 -2.050781 0.8125 -1.757812 0.8125 -1.375 C 0.8125 -0.976562 0.875 -0.679688 1 -0.484375 C 1.132812 -0.285156 1.332031 -0.1875 1.59375 -0.1875 Z M 1.59375 0.078125 C 1.1875 0.078125 0.863281 -0.0507812 0.625 -0.3125 C 0.382812 -0.582031 0.265625 -0.9375 0.265625 -1.375 C 0.265625 -1.8125 0.382812 -2.160156 0.625 -2.421875 C 0.863281 -2.679688 1.1875 -2.8125 1.59375 -2.8125 C 1.988281 -2.8125 2.304688 -2.679688 2.546875 -2.421875 C 2.785156 -2.160156 2.90625 -1.8125 2.90625 -1.375 C 2.90625 -0.9375 2.785156 -0.582031 2.546875 -0.3125 C 2.304688 -0.0507812 1.988281 0.078125 1.59375 0.078125 Z "/>
</g>
<g id="glyph-0-25">
<path d="M 0.921875 -3.84375 L 0.921875 -2.421875 L 0.515625 -2.421875 L 0.515625 -3.84375 Z "/>
</g>
<g id="glyph-0-26">
<path d="M 0.40625 -3.84375 L 1.78125 0.484375 L 1.359375 0.484375 L 0 -3.84375 Z "/>
</g>
<g id="glyph-0-27">
<path d="M 1.671875 -0.1875 C 1.941406 -0.1875 2.140625 -0.328125 2.265625 -0.609375 C 2.398438 -0.898438 2.46875 -1.335938 2.46875 -1.921875 C 2.46875 -2.503906 2.398438 -2.941406 2.265625 -3.234375 C 2.140625 -3.523438 1.941406 -3.671875 1.671875 -3.671875 C 1.410156 -3.671875 1.210938 -3.523438 1.078125 -3.234375 C 0.953125 -2.941406 0.890625 -2.503906 0.890625 -1.921875 C 0.890625 -1.335938 0.953125 -0.898438 1.078125 -0.609375 C 1.210938 -0.328125 1.410156 -0.1875 1.671875 -0.1875 Z M 1.671875 0.078125 C 1.253906 0.078125 0.925781 -0.0976562 0.6875 -0.453125 C 0.457031 -0.804688 0.34375 -1.296875 0.34375 -1.921875 C 0.34375 -2.554688 0.457031 -3.046875 0.6875 -3.390625 C 0.925781 -3.742188 1.253906 -3.921875 1.671875 -3.921875 C 2.097656 -3.921875 2.425781 -3.742188 2.65625 -3.390625 C 2.894531 -3.046875 3.015625 -2.554688 3.015625 -1.921875 C 3.015625 -1.296875 2.894531 -0.804688 2.65625 -0.453125 C 2.425781 -0.0976562 2.097656 0.078125 1.671875 0.078125 Z "/>
</g>
<g id="glyph-0-28">
<path d="M 0.375 0.828125 L 0.375 0.5625 C 0.632812 0.382812 0.820312 0.128906 0.9375 -0.203125 C 1.0625 -0.535156 1.125 -1 1.125 -1.59375 C 1.125 -2.195312 1.0625 -2.660156 0.9375 -2.984375 C 0.820312 -3.316406 0.632812 -3.578125 0.375 -3.765625 L 0.375 -4.015625 C 0.789062 -3.828125 1.101562 -3.53125 1.3125 -3.125 C 1.53125 -2.71875 1.640625 -2.207031 1.640625 -1.59375 C 1.640625 -0.976562 1.53125 -0.46875 1.3125 -0.0625 C 1.101562 0.34375 0.789062 0.640625 0.375 0.828125 Z "/>
</g>
<g id="glyph-0-29">
<path d="M 0.71875 -0.265625 C 0.71875 -0.359375 0.75 -0.4375 0.8125 -0.5 C 0.882812 -0.570312 0.96875 -0.609375 1.0625 -0.609375 C 1.15625 -0.609375 1.234375 -0.570312 1.296875 -0.5 C 1.367188 -0.4375 1.40625 -0.359375 1.40625 -0.265625 C 1.40625 -0.171875 1.367188 -0.0859375 1.296875 -0.015625 C 1.234375 0.046875 1.15625 0.078125 1.0625 0.078125 C 0.96875 0.078125 0.882812 0.046875 0.8125 -0.015625 C 0.75 -0.0859375 0.71875 -0.171875 0.71875 -0.265625 Z M 0.734375 -3.84375 L 1.390625 -3.84375 L 1.21875 -1.734375 L 1.21875 -1.078125 L 0.90625 -1.078125 L 0.90625 -1.734375 Z "/>
</g>
</g>
</defs>
<g fill="rgb(98.431373%, 74.901961%, 14.117647%)" fill-opacity="1">
<use xlink:href="#glyph-0-0" x="30" y="24.898438"/>
<use xlink:href="#glyph-0-1" x="34" y="24.898438"/>
<use xlink:href="#glyph-0-2" x="38" y="24.898438"/>
<use xlink:href="#glyph-0-3" x="41" y="24.898438"/>
<use xlink:href="#glyph-0-4" x="43" y="24.898438"/>
<use xlink:href="#glyph-0-5" x="45" y="24.898438"/>
<use xlink:href="#glyph-0-6" x="49" y="24.898438"/>
<use xlink:href="#glyph-0-7" x="52" y="24.898438"/>
<use xlink:href="#glyph-0-8" x="55" y="24.898438"/>
<use xlink:href="#glyph-0-9" x="58" y="24.898438"/>
<use xlink:href="#glyph-0-4" x="60" y="24.898438"/>
<use xlink:href="#glyph-0-10" x="62" y="24.898438"/>
<use xlink:href="#glyph-0-4" x="65" y="24.898438"/>
<use xlink:href="#glyph-0-11" x="67" y="24.898438"/>
<use xlink:href="#glyph-0-6" x="70" y="24.898438"/>
<use xlink:href="#glyph-0-12" x="73" y="24.898438"/>
<use xlink:href="#glyph-0-4" x="76" y="24.898438"/>
<use xlink:href="#glyph-0-11" x="78" y="24.898438"/>
<use xlink:href="#glyph-0-13" x="81" y="24.898438"/>
<use xlink:href="#glyph-0-14" x="84" y="24.898438"/>
<use xlink:href="#glyph-0-4" x="87" y="24.898438"/>
<use xlink:href="#glyph-0-15" x="89" y="24.898438"/>
<use xlink:href="#glyph-0-16" x="94" y="24.898438"/>
<use xlink:href="#glyph-0-14" x="97" y="24.898438"/>
<use xlink:href="#glyph-0-17" x="100" y="24.898438"/>
<use xlink:href="#glyph-0-4" x="103" y="24.898438"/>
<use xlink:href="#glyph-0-18" x="105" y="24.898438"/>
<use xlink:href="#glyph-0-19" x="107" y="24.898438"/>
<use xlink:href="#glyph-0-9" x="110" y="24.898438"/>
<use xlink:href="#glyph-0-4" x="112" y="24.898438"/>
<use xlink:href="#glyph-0-18" x="114" y="24.898438"/>
<use xlink:href="#glyph-0-6" x="116" y="24.898438"/>
<use xlink:href="#glyph-0-9" x="119" y="24.898438"/>
<use xlink:href="#glyph-0-20" x="121" y="24.898438"/>
<use xlink:href="#glyph-0-7" x="124" y="24.898438"/>
<use xlink:href="#glyph-0-4" x="127" y="24.898438"/>
<use xlink:href="#glyph-0-21" x="129" y="24.898438"/>
<use xlink:href="#glyph-0-4" x="132" y="24.898438"/>
<use xlink:href="#glyph-0-22" x="134" y="24.898438"/>
<use xlink:href="#glyph-0-4" x="137" y="24.898438"/>
<use xlink:href="#glyph-0-23" x="139" y="24.898438"/>
<use xlink:href="#glyph-0-11" x="141" y="24.898438"/>
<use xlink:href="#glyph-0-6" x="144" y="24.898438"/>
<use xlink:href="#glyph-0-24" x="147" y="24.898438"/>
<use xlink:href="#glyph-0-4" x="150" y="24.898438"/>
<use xlink:href="#glyph-0-25" x="152" y="24.898438"/>
<use xlink:href="#glyph-0-26" x="153" y="24.898438"/>
<use xlink:href="#glyph-0-27" x="155" y="24.898438"/>
<use xlink:href="#glyph-0-25" x="158" y="24.898438"/>
<use xlink:href="#glyph-0-28" x="159" y="24.898438"/>
<use xlink:href="#glyph-0-29" x="161" y="24.898438"/>
</g>
</svg>
